--40001LOG 12:21:22:150137100 Waiting for file /home/seluser/videos/vid_chrome_or_firefox_40001* to be created...
Won't start video recording due to VIDEO env var false
ffmpeg version 2.8.17-0ubuntu0.1 Copyright (c) 2000-2020 the FFmpeg developers
  built with gcc 5.4.0 (Ubuntu 5.4.0-6ubuntu1~16.04.12) 20160609
  configuration: --prefix=/usr --extra-version=0ubuntu0.1 --build-suffix=-ffmpeg --toolchain=hardened --libdir=/usr/lib/x86_64-linux-gnu --incdir=/usr/include/x86_64-linux-gnu --cc=cc --cxx=g++ --enable-gpl --enable-shared --disable-stripping --disable-decoder=libopenjpeg --disable-decoder=libschroedinger --enable-avresample --enable-avisynth --enable-gnutls --enable-ladspa --enable-libass --enable-libbluray --enable-libbs2b --enable-libcaca --enable-libcdio --enable-libflite --enable-libfontconfig --enable-libfreetype --enable-libfribidi --enable-libgme --enable-libgsm --enable-libmodplug --enable-libmp3lame --enable-libopenjpeg --enable-libopus --enable-libpulse --enable-librtmp --enable-libschroedinger --enable-libshine --enable-libsnappy --enable-libsoxr --enable-libspeex --enable-libssh --enable-libtheora --enable-libtwolame --enable-libvorbis --enable-libvpx --enable-libwavpack --enable-libwebp --enable-libx265 --enable-libxvid --enable-libzvbi --enable-openal --enable-opengl --enable-x11grab --enable-libdc1394 --enable-libiec61883 --enable-libzmq --enable-frei0r --enable-libx264 --enable-libopencv
  libavutil      54. 31.100 / 54. 31.100
  libavcodec     56. 60.100 / 56. 60.100
  libavformat    56. 40.101 / 56. 40.101
  libavdevice    56.  4.100 / 56.  4.100
  libavfilter     5. 40.101 /  5. 40.101
  libavresample   2.  1.  0 /  2.  1.  0
  libswscale      3.  1.101 /  3.  1.101
  libswresample   1.  2.101 /  1.  2.101
  libpostproc    53.  3.100 / 53.  3.100
Input #0, x11grab, from ':28.0':
  Duration: N/A, start: 1603880482.632459, bitrate: N/A
    Stream #0:0: Video: rawvideo (BGR[0] / 0x524742), bgr0, 1366x768, 10 fps, 10 tbr, 1000k tbn, 10 tbc
[libx264 @ 0x1f84320] using cpu capabilities: MMX2 SSE2Fast SSSE3 SSE4.2 AVX FMA3 AVX2 LZCNT BMI2
[libx264 @ 0x1f84320] profile Constrained Baseline, level 3.2
[libx264 @ 0x1f84320] 264 - core 148 r2643 5c65704 - H.264/MPEG-4 AVC codec - Copyleft 2003-2015 - http://www.videolan.org/x264.html - options: cabac=0 ref=1 deblock=0:0:0 analyse=0:0 me=dia subme=0 psy=1 psy_rd=1.00:0.00 mixed_ref=0 me_range=16 chroma_me=1 trellis=0 8x8dct=0 cqm=0 deadzone=21,11 fast_pskip=1 chroma_qp_offset=0 threads=3 lookahead_threads=1 sliced_threads=0 nr=0 decimate=1 interlaced=0 bluray_compat=0 constrained_intra=0 bframes=0 weightp=0 keyint=250 keyint_min=10 scenecut=0 intra_refresh=0 rc=crf mbtree=0 crf=23.0 qcomp=0.60 qpmin=0 qpmax=69 qpstep=4 ip_ratio=1.40 aq=0
Output #0, matroska, to '/home/seluser/videos/vid_chrome_or_firefox_40001.mkv':
  Metadata:
    encoder         : Lavf56.40.101
    Stream #0:0: Video: h264 (libx264) (H264 / 0x34363248), yuv420p, 1366x768, q=-1--1, 10 fps, 1k tbn, 10 tbc
    Metadata:
      encoder         : Lavc56.60.100 libx264
Stream mapping:
  Stream #0:0 -> #0:0 (rawvideo (native) -> h264 (libx264))
Press [q] to stop, [?] for help
[swscaler @ 0x1f8fca0] Warning: data is not aligned! This can lead to a speedloss
frame=    7 fps=0.0 q=10.0 size=      24kB time=00:00:00.30 bitrate= 658.1kbits/s    
frame=   15 fps= 13 q=9.0 size=      28kB time=00:00:01.10 bitrate= 211.4kbits/s    
frame=   19 fps= 10 q=9.0 size=      29kB time=00:00:01.50 bitrate= 157.4kbits/s    
frame=   26 fps= 11 q=9.0 size=      32kB time=00:00:02.20 bitrate= 119.7kbits/s    
frame=   32 fps= 11 q=10.0 size=      40kB time=00:00:02.80 bitrate= 118.4kbits/s    
frame=   37 fps= 11 q=9.0 size=      42kB time=00:00:03.30 bitrate= 104.3kbits/s    
frame=   42 fps= 11 q=9.0 size=      43kB time=00:00:03.80 bitrate=  91.9kbits/s    
frame=   48 fps= 11 q=9.0 size=      44kB time=00:00:04.40 bitrate=  82.3kbits/s    
frame=   53 fps= 11 q=9.0 size=      45kB time=00:00:04.90 bitrate=  75.5kbits/s    
frame=   59 fps= 11 q=10.0 size=      46kB time=00:00:05.50 bitrate=  69.1kbits/s    
frame=   65 fps= 11 q=16.0 size=     162kB time=00:00:06.10 bitrate= 218.2kbits/s    
frame=   70 fps= 10 q=11.0 size=     206kB time=00:00:06.60 bitrate= 255.4kbits/s    
frame=   76 fps= 10 q=11.0 size=     252kB time=00:00:07.20 bitrate= 286.8kbits/s    
frame=   81 fps= 10 q=9.0 size=     261kB time=00:00:07.70 bitrate= 277.2kbits/s    
frame=   86 fps= 10 q=10.0 size=     266kB time=00:00:08.20 bitrate= 265.3kbits/s    
frame=   92 fps= 10 q=9.0 size=     266kB time=00:00:08.80 bitrate= 247.7kbits/s    
frame=   97 fps= 10 q=9.0 size=     267kB time=00:00:09.30 bitrate= 234.8kbits/s    
frame=  102 fps= 10 q=9.0 size=     267kB time=00:00:09.80 bitrate= 223.2kbits/s    
frame=  108 fps= 10 q=13.0 size=     267kB time=00:00:10.40 bitrate= 210.7kbits/s    
frame=  114 fps= 10 q=11.0 size=     285kB time=00:00:11.00 bitrate= 211.9kbits/s    
frame=  119 fps= 10 q=9.0 size=     288kB time=00:00:11.50 bitrate= 205.1kbits/s    
frame=  125 fps= 10 q=9.0 size=     288kB time=00:00:12.10 bitrate= 195.1kbits/s    
frame=  130 fps= 10 q=9.0 size=     288kB time=00:00:12.60 bitrate= 187.6kbits/s    
frame=  136 fps= 10 q=9.0 size=     289kB time=00:00:13.20 bitrate= 179.2kbits/s    
frame=  141 fps= 10 q=10.0 size=     289kB time=00:00:13.70 bitrate= 172.8kbits/s    
frame=  147 fps= 10 q=10.0 size=     300kB time=00:00:14.30 bitrate= 171.7kbits/s    
frame=  152 fps= 10 q=9.0 size=     301kB time=00:00:14.80 bitrate= 166.7kbits/s    
frame=  158 fps= 10 q=9.0 size=     301kB time=00:00:15.40 bitrate= 160.3kbits/s    
frame=  164 fps= 10 q=9.0 size=     302kB time=00:00:16.00 bitrate= 154.5kbits/s    
frame=  170 fps= 10 q=9.0 size=     302kB time=00:00:16.60 bitrate= 149.0kbits/s    
frame=  176 fps= 10 q=9.0 size=     302kB time=00:00:17.20 bitrate= 143.9kbits/s    
frame=  181 fps= 10 q=9.0 size=     302kB time=00:00:17.70 bitrate= 139.9kbits/s    
frame=  187 fps= 10 q=9.0 size=     303kB time=00:00:18.30 bitrate= 135.4kbits/s    
frame=  193 fps= 10 q=9.0 size=     303kB time=00:00:18.90 bitrate= 131.2kbits/s    
frame=  198 fps= 10 q=9.0 size=     303kB time=00:00:19.40 bitrate= 127.9kbits/s    
frame=  204 fps= 10 q=9.0 size=     303kB time=00:00:20.00 bitrate= 124.2kbits/s    
frame=  209 fps= 10 q=9.0 size=     303kB time=00:00:20.50 bitrate= 121.3kbits/s    
frame=  215 fps= 10 q=9.0 size=     304kB time=00:00:21.10 bitrate= 117.9kbits/s    
frame=  220 fps= 10 q=9.0 size=     304kB time=00:00:21.60 bitrate= 115.2kbits/s    
frame=  226 fps= 10 q=9.0 size=     304kB time=00:00:22.20 bitrate= 112.2kbits/s    
frame=  231 fps= 10 q=9.0 size=     304kB time=00:00:22.70 bitrate= 109.8kbits/s    
frame=  236 fps= 10 q=9.0 size=     304kB time=00:00:23.20 bitrate= 107.5kbits/s    
frame=  242 fps= 10 q=9.0 size=     305kB time=00:00:23.80 bitrate= 104.9kbits/s    
frame=  247 fps= 10 q=9.0 size=     305kB time=00:00:24.30 bitrate= 102.8kbits/s    
frame=  252 fps= 10 q=9.0 size=     305kB time=00:00:24.80 bitrate= 100.8kbits/s    
frame=  258 fps= 10 q=12.0 size=     463kB time=00:00:25.40 bitrate= 149.4kbits/s    
frame=  264 fps= 10 q=9.0 size=     463kB time=00:00:26.00 bitrate= 146.0kbits/s    
frame=  269 fps= 10 q=9.0 size=     464kB time=00:00:26.50 bitrate= 143.3kbits/s    
frame=  275 fps= 10 q=9.0 size=     464kB time=00:00:27.10 bitrate= 140.2kbits/s    
frame=  281 fps= 10 q=9.0 size=     464kB time=00:00:27.70 bitrate= 137.2kbits/s    
frame=  286 fps= 10 q=9.0 size=     464kB time=00:00:28.20 bitrate= 134.8kbits/s    
frame=  292 fps= 10 q=9.0 size=     464kB time=00:00:28.80 bitrate= 132.1kbits/s    
frame=  298 fps= 10 q=9.0 size=     464kB time=00:00:29.40 bitrate= 129.4kbits/s    
frame=  303 fps= 10 q=9.0 size=     465kB time=00:00:29.90 bitrate= 127.3kbits/s    
frame=  308 fps= 10 q=9.0 size=     465kB time=00:00:30.40 bitrate= 125.2kbits/s    
frame=  314 fps= 10 q=9.0 size=     465kB time=00:00:31.00 bitrate= 122.9kbits/s    
frame=  320 fps= 10 q=9.0 size=     465kB time=00:00:31.60 bitrate= 120.6kbits/s    
frame=  326 fps= 10 q=9.0 size=     465kB time=00:00:32.20 bitrate= 118.4kbits/s    
frame=  332 fps= 10 q=9.0 size=     465kB time=00:00:32.80 bitrate= 116.3kbits/s    
frame=  338 fps= 10 q=9.0 size=     466kB time=00:00:33.40 bitrate= 114.2kbits/s    
frame=  343 fps= 10 q=9.0 size=     466kB time=00:00:33.90 bitrate= 112.6kbits/s    
frame=  348 fps= 10 q=9.0 size=     466kB time=00:00:34.40 bitrate= 110.9kbits/s    
frame=  353 fps= 10 q=9.0 size=     466kB time=00:00:34.90 bitrate= 109.4kbits/s    
frame=  359 fps= 10 q=9.0 size=     466kB time=00:00:35.50 bitrate= 107.6kbits/s    
frame=  365 fps= 10 q=9.0 size=     466kB time=00:00:36.10 bitrate= 105.8kbits/s    
frame=  370 fps= 10 q=9.0 size=     467kB time=00:00:36.60 bitrate= 104.4kbits/s    
frame=  376 fps= 10 q=9.0 size=     467kB time=00:00:37.20 bitrate= 102.8kbits/s    
frame=  382 fps= 10 q=9.0 size=     467kB time=00:00:37.80 bitrate= 101.2kbits/s    
frame=  387 fps= 10 q=9.0 size=     467kB time=00:00:38.30 bitrate=  99.9kbits/s    
frame=  393 fps= 10 q=9.0 size=     467kB time=00:00:38.90 bitrate=  98.4kbits/s    
frame=  398 fps= 10 q=9.0 size=     467kB time=00:00:39.40 bitrate=  97.2kbits/s    
frame=  403 fps= 10 q=9.0 size=     468kB time=00:00:39.90 bitrate=  96.0kbits/s    
frame=  409 fps= 10 q=9.0 size=     468kB time=00:00:40.50 bitrate=  94.6kbits/s    
frame=  414 fps= 10 q=9.0 size=     468kB time=00:00:41.00 bitrate=  93.5kbits/s    
frame=  420 fps= 10 q=9.0 size=     468kB time=00:00:41.60 bitrate=  92.2kbits/s    
frame=  426 fps= 10 q=9.0 size=     468kB time=00:00:42.20 bitrate=  90.9kbits/s    
frame=  431 fps= 10 q=9.0 size=     468kB time=00:00:42.70 bitrate=  89.9kbits/s    
frame=  436 fps= 10 q=9.0 size=     469kB time=00:00:43.20 bitrate=  88.8kbits/s    
frame=  442 fps= 10 q=9.0 size=     469kB time=00:00:43.80 bitrate=  87.7kbits/s    
frame=  447 fps= 10 q=9.0 size=     469kB time=00:00:44.30 bitrate=  86.7kbits/s    
frame=  453 fps= 10 q=9.0 size=     469kB time=00:00:44.90 bitrate=  85.6kbits/s    
frame=  459 fps= 10 q=9.0 size=     469kB time=00:00:45.50 bitrate=  84.5kbits/s    
frame=  464 fps= 10 q=9.0 size=     469kB time=00:00:46.00 bitrate=  83.6kbits/s    
frame=  470 fps= 10 q=9.0 size=     470kB time=00:00:46.60 bitrate=  82.5kbits/s    
frame=  475 fps= 10 q=9.0 size=     470kB time=00:00:47.10 bitrate=  81.7kbits/s    
frame=  480 fps= 10 q=9.0 size=     470kB time=00:00:47.60 bitrate=  80.9kbits/s    
frame=  486 fps= 10 q=9.0 size=     470kB time=00:00:48.20 bitrate=  79.9kbits/s    
frame=  491 fps= 10 q=9.0 size=     470kB time=00:00:48.70 bitrate=  79.1kbits/s    
frame=  496 fps= 10 q=9.0 size=     470kB time=00:00:49.20 bitrate=  78.3kbits/s    
frame=  502 fps= 10 q=9.0 size=     470kB time=00:00:49.80 bitrate=  77.4kbits/s    
frame=  507 fps= 10 q=13.0 size=     629kB time=00:00:50.30 bitrate= 102.4kbits/s    
frame=  513 fps= 10 q=9.0 size=     629kB time=00:00:50.90 bitrate= 101.2kbits/s    
frame=  519 fps= 10 q=9.0 size=     629kB time=00:00:51.50 bitrate= 100.1kbits/s    
frame=  525 fps= 10 q=9.0 size=     629kB time=00:00:52.10 bitrate=  98.9kbits/s    
frame=  531 fps= 10 q=9.0 size=     629kB time=00:00:52.70 bitrate=  97.8kbits/s    
frame=  536 fps= 10 q=9.0 size=     629kB time=00:00:53.20 bitrate=  96.9kbits/s    
frame=  542 fps= 10 q=9.0 size=     630kB time=00:00:53.80 bitrate=  95.9kbits/s    
frame=  548 fps= 10 q=9.0 size=     630kB time=00:00:54.40 bitrate=  94.8kbits/s    
frame=  553 fps= 10 q=9.0 size=     630kB time=00:00:54.90 bitrate=  94.0kbits/s    
frame=  559 fps= 10 q=9.0 size=     630kB time=00:00:55.50 bitrate=  93.0kbits/s    
frame=  565 fps= 10 q=9.0 size=     630kB time=00:00:56.10 bitrate=  92.0kbits/s    
frame=  570 fps= 10 q=9.0 size=     630kB time=00:00:56.60 bitrate=  91.2kbits/s    
frame=  576 fps= 10 q=9.0 size=     631kB time=00:00:57.20 bitrate=  90.3kbits/s    
frame=  581 fps= 10 q=9.0 size=     631kB time=00:00:57.70 bitrate=  89.6kbits/s    
frame=  586 fps= 10 q=9.0 size=     631kB time=00:00:58.20 bitrate=  88.8kbits/s    
frame=  592 fps= 10 q=9.0 size=     631kB time=00:00:58.80 bitrate=  87.9kbits/s    
frame=  598 fps= 10 q=9.0 size=     631kB time=00:00:59.40 bitrate=  87.1kbits/s    
frame=  604 fps= 10 q=9.0 size=     631kB time=00:01:00.00 bitrate=  86.2kbits/s    
frame=  610 fps= 10 q=9.0 size=     632kB time=00:01:00.60 bitrate=  85.4kbits/s    
frame=  615 fps= 10 q=9.0 size=     632kB time=00:01:01.10 bitrate=  84.7kbits/s    
frame=  621 fps= 10 q=9.0 size=     632kB time=00:01:01.70 bitrate=  83.9kbits/s    
frame=  627 fps= 10 q=9.0 size=     632kB time=00:01:02.30 bitrate=  83.1kbits/s    
frame=  633 fps= 10 q=9.0 size=     632kB time=00:01:02.90 bitrate=  82.3kbits/s    
frame=  638 fps= 10 q=9.0 size=     632kB time=00:01:03.40 bitrate=  81.7kbits/s    
frame=  643 fps= 10 q=9.0 size=     632kB time=00:01:03.90 bitrate=  81.1kbits/s    
frame=  649 fps= 10 q=9.0 size=     633kB time=00:01:04.50 bitrate=  80.3kbits/s    
frame=  654 fps= 10 q=9.0 size=     633kB time=00:01:05.00 bitrate=  79.7kbits/s    
frame=  660 fps= 10 q=9.0 size=     633kB time=00:01:05.60 bitrate=  79.0kbits/s    
frame=  665 fps= 10 q=9.0 size=     633kB time=00:01:06.10 bitrate=  78.4kbits/s    
frame=  671 fps= 10 q=9.0 size=     633kB time=00:01:06.70 bitrate=  77.8kbits/s    
frame=  676 fps= 10 q=9.0 size=     633kB time=00:01:07.20 bitrate=  77.2kbits/s    
frame=  682 fps= 10 q=9.0 size=     634kB time=00:01:07.80 bitrate=  76.6kbits/s    
frame=  688 fps= 10 q=9.0 size=     634kB time=00:01:08.40 bitrate=  75.9kbits/s    
frame=  693 fps= 10 q=9.0 size=     634kB time=00:01:08.90 bitrate=  75.4kbits/s    
frame=  698 fps= 10 q=9.0 size=     634kB time=00:01:09.40 bitrate=  74.8kbits/s    
frame=  704 fps= 10 q=9.0 size=     634kB time=00:01:10.00 bitrate=  74.2kbits/s    
frame=  709 fps= 10 q=9.0 size=     634kB time=00:01:10.50 bitrate=  73.7kbits/s    
frame=  715 fps= 10 q=9.0 size=     635kB time=00:01:11.10 bitrate=  73.1kbits/s    
frame=  720 fps= 10 q=9.0 size=     635kB time=00:01:11.60 bitrate=  72.6kbits/s    
frame=  725 fps= 10 q=9.0 size=     635kB time=00:01:12.10 bitrate=  72.1kbits/s    
frame=  730 fps= 10 q=9.0 size=     635kB time=00:01:12.60 bitrate=  71.7kbits/s    
frame=  735 fps= 10 q=9.0 size=     635kB time=00:01:13.10 bitrate=  71.2kbits/s    
frame=  740 fps= 10 q=9.0 size=     635kB time=00:01:13.60 bitrate=  70.7kbits/s    
frame=  746 fps= 10 q=9.0 size=     635kB time=00:01:14.20 bitrate=  70.2kbits/s    
frame=  752 fps= 10 q=9.0 size=     636kB time=00:01:14.80 bitrate=  69.6kbits/s    
frame=  758 fps= 10 q=12.0 size=     794kB time=00:01:15.40 bitrate=  86.2kbits/s    
frame=  764 fps= 10 q=9.0 size=     794kB time=00:01:16.00 bitrate=  85.6kbits/s    
frame=  769 fps= 10 q=9.0 size=     794kB time=00:01:16.50 bitrate=  85.1kbits/s    
frame=  775 fps= 10 q=9.0 size=     794kB time=00:01:17.10 bitrate=  84.4kbits/s    
frame=  781 fps= 10 q=9.0 size=     795kB time=00:01:17.70 bitrate=  83.8kbits/s    
frame=  786 fps= 10 q=9.0 size=     795kB time=00:01:18.20 bitrate=  83.3kbits/s    
frame=  791 fps= 10 q=9.0 size=     795kB time=00:01:18.70 bitrate=  82.7kbits/s    
frame=  797 fps= 10 q=9.0 size=     795kB time=00:01:19.30 bitrate=  82.1kbits/s    
frame=  803 fps= 10 q=9.0 size=     795kB time=00:01:19.90 bitrate=  81.5kbits/s    
frame=  808 fps= 10 q=9.0 size=     795kB time=00:01:20.40 bitrate=  81.0kbits/s    
frame=  814 fps= 10 q=9.0 size=     795kB time=00:01:21.00 bitrate=  80.5kbits/s    
frame=  819 fps= 10 q=9.0 size=     796kB time=00:01:21.50 bitrate=  80.0kbits/s    
frame=  824 fps= 10 q=9.0 size=     796kB time=00:01:22.00 bitrate=  79.5kbits/s    
frame=  830 fps= 10 q=9.0 size=     796kB time=00:01:22.60 bitrate=  78.9kbits/s    
frame=  836 fps= 10 q=9.0 size=     796kB time=00:01:23.20 bitrate=  78.4kbits/s    
frame=  841 fps= 10 q=9.0 size=     796kB time=00:01:23.70 bitrate=  77.9kbits/s    
frame=  846 fps= 10 q=9.0 size=     796kB time=00:01:24.20 bitrate=  77.5kbits/s    
frame=  852 fps= 10 q=9.0 size=     797kB time=00:01:24.80 bitrate=  77.0kbits/s    
frame=  857 fps= 10 q=9.0 size=     797kB time=00:01:25.30 bitrate=  76.5kbits/s    
frame=  863 fps= 10 q=9.0 size=     797kB time=00:01:25.90 bitrate=  76.0kbits/s    
frame=  869 fps= 10 q=9.0 size=     797kB time=00:01:26.50 bitrate=  75.5kbits/s    
frame=  874 fps= 10 q=9.0 size=     797kB time=00:01:27.00 bitrate=  75.1kbits/s    
frame=  880 fps= 10 q=9.0 size=     797kB time=00:01:27.60 bitrate=  74.6kbits/s    
frame=  886 fps= 10 q=9.0 size=     798kB time=00:01:28.20 bitrate=  74.1kbits/s    
frame=  892 fps= 10 q=9.0 size=     798kB time=00:01:28.80 bitrate=  73.6kbits/s    
frame=  898 fps= 10 q=9.0 size=     798kB time=00:01:29.40 bitrate=  73.1kbits/s    
frame=  903 fps= 10 q=9.0 size=     798kB time=00:01:29.90 bitrate=  72.7kbits/s    
frame=  908 fps= 10 q=9.0 size=     798kB time=00:01:30.40 bitrate=  72.3kbits/s    
frame=  914 fps= 10 q=9.0 size=     798kB time=00:01:31.00 bitrate=  71.9kbits/s    
frame=  919 fps= 10 q=9.0 size=     798kB time=00:01:31.50 bitrate=  71.5kbits/s    
frame=  925 fps= 10 q=9.0 size=     799kB time=00:01:32.10 bitrate=  71.0kbits/s    
frame=  930 fps= 10 q=9.0 size=     799kB time=00:01:32.60 bitrate=  70.7kbits/s    
frame=  936 fps= 10 q=9.0 size=     799kB time=00:01:33.20 bitrate=  70.2kbits/s    
frame=  941 fps= 10 q=9.0 size=     799kB time=00:01:33.70 bitrate=  69.9kbits/s    
frame=  947 fps= 10 q=9.0 size=     799kB time=00:01:34.30 bitrate=  69.4kbits/s    
frame=  953 fps= 10 q=9.0 size=     799kB time=00:01:34.90 bitrate=  69.0kbits/s    
frame=  959 fps= 10 q=9.0 size=     799kB time=00:01:35.50 bitrate=  68.6kbits/s    
frame=  965 fps= 10 q=9.0 size=     800kB time=00:01:36.10 bitrate=  68.2kbits/s    
frame=  970 fps= 10 q=9.0 size=     800kB time=00:01:36.60 bitrate=  67.8kbits/s    
frame=  976 fps= 10 q=9.0 size=     800kB time=00:01:37.20 bitrate=  67.4kbits/s    
frame=  982 fps= 10 q=9.0 size=     800kB time=00:01:37.80 bitrate=  67.0kbits/s    
frame=  987 fps= 10 q=9.0 size=     800kB time=00:01:38.30 bitrate=  66.7kbits/s    
frame=  993 fps= 10 q=9.0 size=     801kB time=00:01:38.90 bitrate=  66.3kbits/s    
frame=  998 fps= 10 q=9.0 size=     801kB time=00:01:39.40 bitrate=  66.0kbits/s    
frame= 1004 fps= 10 q=19.0 size=     801kB time=00:01:40.00 bitrate=  65.6kbits/s    
frame= 1010 fps= 10 q=10.0 size=     959kB time=00:01:40.60 bitrate=  78.1kbits/s    
frame= 1016 fps= 10 q=9.0 size=     959kB time=00:01:41.20 bitrate=  77.6kbits/s    
frame= 1021 fps= 10 q=9.0 size=     959kB time=00:01:41.70 bitrate=  77.3kbits/s    
frame= 1026 fps= 10 q=9.0 size=     959kB time=00:01:42.20 bitrate=  76.9kbits/s    
frame= 1031 fps= 10 q=9.0 size=     960kB time=00:01:42.70 bitrate=  76.5kbits/s    
frame= 1037 fps= 10 q=9.0 size=     960kB time=00:01:43.30 bitrate=  76.1kbits/s    
frame= 1042 fps= 10 q=9.0 size=     960kB time=00:01:43.80 bitrate=  75.8kbits/s    
frame= 1048 fps= 10 q=9.0 size=     960kB time=00:01:44.40 bitrate=  75.3kbits/s    
frame= 1054 fps= 10 q=9.0 size=     960kB time=00:01:45.00 bitrate=  74.9kbits/s    
frame= 1060 fps= 10 q=9.0 size=     960kB time=00:01:45.60 bitrate=  74.5kbits/s    
frame= 1066 fps= 10 q=9.0 size=     960kB time=00:01:46.20 bitrate=  74.1kbits/s    
frame= 1071 fps= 10 q=9.0 size=     961kB time=00:01:46.70 bitrate=  73.8kbits/s    
frame= 1077 fps= 10 q=9.0 size=     961kB time=00:01:47.30 bitrate=  73.4kbits/s    
frame= 1083 fps= 10 q=9.0 size=     961kB time=00:01:47.90 bitrate=  73.0kbits/s    
frame= 1089 fps= 10 q=9.0 size=     961kB time=00:01:48.50 bitrate=  72.6kbits/s    
frame= 1095 fps= 10 q=9.0 size=     961kB time=00:01:49.10 bitrate=  72.2kbits/s    
frame= 1101 fps= 10 q=9.0 size=     962kB time=00:01:49.70 bitrate=  71.8kbits/s    
frame= 1106 fps= 10 q=9.0 size=     962kB time=00:01:50.20 bitrate=  71.5kbits/s    
frame= 1112 fps= 10 q=9.0 size=     962kB time=00:01:50.80 bitrate=  71.1kbits/s    
frame= 1118 fps= 10 q=9.0 size=     962kB time=00:01:51.40 bitrate=  70.7kbits/s    
frame= 1123 fps= 10 q=9.0 size=     962kB time=00:01:51.90 bitrate=  70.4kbits/s    
frame= 1129 fps= 10 q=9.0 size=     962kB time=00:01:52.50 bitrate=  70.1kbits/s    
frame= 1134 fps= 10 q=9.0 size=     962kB time=00:01:53.00 bitrate=  69.8kbits/s    
frame= 1139 fps= 10 q=9.0 size=     963kB time=00:01:53.50 bitrate=  69.5kbits/s    
frame= 1145 fps= 10 q=9.0 size=     963kB time=00:01:54.10 bitrate=  69.1kbits/s    
frame= 1151 fps= 10 q=9.0 size=     963kB time=00:01:54.70 bitrate=  68.8kbits/s    
frame= 1156 fps= 10 q=9.0 size=     963kB time=00:01:55.20 bitrate=  68.5kbits/s    
frame= 1161 fps= 10 q=9.0 size=     963kB time=00:01:55.70 bitrate=  68.2kbits/s    
frame= 1165 fps= 10 q=9.0 size=     963kB time=00:01:56.10 bitrate=  68.0kbits/s    
frame= 1171 fps= 10 q=9.0 size=     964kB time=00:01:56.70 bitrate=  67.6kbits/s    
frame= 1175 fps= 10 q=9.0 size=     964kB time=00:01:57.10 bitrate=  67.4kbits/s    
frame= 1178 fps= 10 q=11.0 size=     964kB time=00:01:57.40 bitrate=  67.3kbits/s    
frame= 1182 fps= 10 q=9.0 size=     969kB time=00:01:57.80 bitrate=  67.4kbits/s    
frame= 1191 fps= 10 q=9.0 size=     969kB time=00:01:58.70 bitrate=  66.9kbits/s    
frame= 1200 fps= 10 q=9.0 size=     969kB time=00:01:59.60 bitrate=  66.4kbits/s    
--40001LOG 12:23:22:560671700 Trapped SIGTERM or SIGINT so shutting down ffmpeg gracefully...
frame= 1200 fps= 10 q=-1.0 Lsize=     970kB time=00:02:00.00 bitrate=  66.2kbits/s    
video:961kB audio:0kB subtitle:0kB other streams:0kB global headers:0kB muxing overhead: 0.863813%
--40001LOG 12:23:22:588615700 Will kill VID_TOOL_PID=721 ...
[libx264 @ 0x1f84320] frame I:5     Avg QP: 8.80  size:132422
[libx264 @ 0x1f84320] frame P:1195  Avg QP: 9.25  size:   269
[libx264 @ 0x1f84320] mb I  I16..4: 100.0%  0.0%  0.0%
[libx264 @ 0x1f84320] mb P  I16..4:  0.2%  0.0%  0.0%  P16..4:  0.2%  0.0%  0.0%  0.0%  0.0%    skip:99.5%
[libx264 @ 0x1f84320] coded y,uvDC,uvAC intra: 20.2% 16.1% 15.6% inter: 0.1% 0.2% 0.1%
[libx264 @ 0x1f84320] i16 v,h,dc,p: 69% 29%  2%  0%
[libx264 @ 0x1f84320] i8c dc,h,v,p: 69% 25%  6%  0%
[libx264 @ 0x1f84320] kb/s:65.59
Exiting normally, received signal 2.
--40001LOG 12:23:23:607346300 Tried to kill -SIGTERM VID_TOOL_PID=721
--40001LOG 12:23:23:635812800 Waiting up to 6s for VID_TOOL_PID=721 to end with SIGTERM...
--40001LOG 12:23:23:674859500 wait_pid successfully managed to SIGTERM:VID_TOOL_PID=721 within less than 6s
--40001LOG 12:23:23:698611900 Will try to fix the videos...
--40001LOG 12:23:24:251473800 Fixing perms for /home/seluser/videos/vid_chrome_or_firefox_40001.mkv*
--40001LOG 12:23:24:305640500 Changing video encoding from mkv to mp4...
--40001LOG 12:23:32:739805600 Conversion from mkv to mp4 succeeded!
--40001LOG 12:23:32:747809600 Cleaning up /home/seluser/videos/vid_chrome_or_firefox_40001.mkv ...
--40001LOG 12:23:32:781892800 Optimizing /home/seluser/videos/vid_chrome_or_firefox_40001.mp4 for HTTP streaming...
--40001LOG 12:23:32:878192100 Succeeded to mp4box_retry.sh within 8s
--40001LOG 12:23:32:883518100 ffmpeg shutdown complete.
